<svg width="1600" height="720" viewBox="0 0 1600 720" fill="none" xmlns="http://www.w3.org/2000/svg">
  <rect width="1600" height="720" rx="32" fill="#F5F8FF"/>
  <text x="80" y="100" fill="#173454" font-size="44" font-weight="700">多 Agent 工作流</text>
  <text x="80" y="142" fill="#6A81A3" font-size="24">通过 LangGraph 将意图识别、路由、工具调用和结果汇总串成完整链路</text>

  <rect x="80" y="222" width="220" height="120" rx="28" fill="#FFFFFF" stroke="#D6E2F8"/>
  <text x="112" y="276" fill="#173454" font-size="28" font-weight="700">1. 上下文加载</text>
  <text x="112" y="314" fill="#4B6487" font-size="20">会话历史</text>
  <text x="112" y="340" fill="#4B6487" font-size="20">短期记忆 / 偏好记忆</text>

  <rect x="360" y="222" width="220" height="120" rx="28" fill="#FFFFFF" stroke="#D6E2F8"/>
  <text x="392" y="276" fill="#173454" font-size="28" font-weight="700">2. 意图识别</text>
  <text x="392" y="314" fill="#4B6487" font-size="20">IntentAgent</text>
  <text x="392" y="340" fill="#4B6487" font-size="20">confidence / routing_reason</text>

  <rect x="640" y="164" width="260" height="96" rx="26" fill="#EAF1FF" stroke="#C7D8FB"/>
  <text x="678" y="220" fill="#2F5BEA" font-size="24" font-weight="700">需要补充信息</text>
  <rect x="640" y="294" width="260" height="96" rx="26" fill="#FFFFFF" stroke="#D6E2F8"/>
  <text x="690" y="350" fill="#173454" font-size="24" font-weight="700">商品问答</text>
  <rect x="640" y="424" width="260" height="96" rx="26" fill="#FFFFFF" stroke="#D6E2F8"/>
  <text x="690" y="480" fill="#173454" font-size="24" font-weight="700">活动文案</text>

  <rect x="960" y="164" width="260" height="96" rx="26" fill="#FFFFFF" stroke="#D6E2F8"/>
  <text x="1014" y="220" fill="#173454" font-size="24" font-weight="700">客服回复</text>
  <rect x="960" y="294" width="260" height="96" rx="26" fill="#FFFFFF" stroke="#D6E2F8"/>
  <text x="1014" y="350" fill="#173454" font-size="24" font-weight="700">评论分析</text>
  <rect x="960" y="424" width="260" height="96" rx="26" fill="#FFFFFF" stroke="#D6E2F8"/>
  <text x="1014" y="480" fill="#173454" font-size="24" font-weight="700">竞品与日报</text>

  <rect x="1280" y="222" width="240" height="120" rx="28" fill="#173454"/>
  <text x="1320" y="276" fill="#FFFFFF" font-size="28" font-weight="700">SummaryAgent</text>
  <text x="1320" y="314" fill="#DCE8FF" font-size="20">answer / structured_result</text>
  <text x="1320" y="340" fill="#DCE8FF" font-size="20">logs / used_tools / path</text>

  <path d="M300 282H340" stroke="#8AA3C9" stroke-width="4" stroke-linecap="round"/>
  <path d="M580 282H620" stroke="#8AA3C9" stroke-width="4" stroke-linecap="round"/>
  <path d="M900 212H940" stroke="#8AA3C9" stroke-width="4" stroke-linecap="round"/>
  <path d="M900 342H940" stroke="#8AA3C9" stroke-width="4" stroke-linecap="round"/>
  <path d="M900 472H940" stroke="#8AA3C9" stroke-width="4" stroke-linecap="round"/>
  <path d="M1220 282H1260" stroke="#8AA3C9" stroke-width="4" stroke-linecap="round"/>

  <path d="M770 260V286" stroke="#8AA3C9" stroke-width="4" stroke-linecap="round"/>
  <path d="M770 390V416" stroke="#8AA3C9" stroke-width="4" stroke-linecap="round"/>

  <text x="80" y="626" fill="#173454" font-size="26" font-weight="700">典型链路示例</text>
  <text x="80" y="668" fill="#4B6487" font-size="22">“给我写一个文案” → ClarificationNode → “耳机” → ContentAgent → generate_campaign_copy → SummaryAgent</text>
</svg>
